# xmcd
#
# Track frame offsets:
#	182
#	12875
#	23875
#	37667
#	49767
#	59635
#	70277
#	80562
#	89902
#	100967
#
# Disc length: 1467 seconds
#
# Revision: 1
# Processed by: cddbd v1.5PL3 Copyright (c) Steve Scherf et al.
# Submitted via: audiograbber 1.80.04
#
DISCID=8205b90a
DTITLE=George Jones - Classics
DYEAR=1900
DGENRE=Country
TTITLE0=White Lightning
TTITLE1=Who Shot Sam
TTITLE2=Family Bible
TTITLE3=Out of Control
TTITLE4=Too Much Water
TTITLE5=Treasure of Love
TTITLE6=Don't Stop the Music
TTITLE7=Big Harlan Taylor
TTITLE8=Wandering Soul
TTITLE9=Honky Tonkin'
EXTD=
EXTT0=
EXTT1=
EXTT2=
EXTT3=
EXTT4=
EXTT5=
EXTT6=
EXTT7=
EXTT8=
EXTT9=
PLAYORDER=
